<svg xmlns="http://www.w3.org/2000/svg" xmlns:xlink="http://www.w3.org/1999/xlink" viewBox="0 0 180 96" width="180" height="96" preserveAspectRatio="xMidYMid meet" style="width: 100%; height: 100%; transform: translate3d(0px, 0px, 0px); content-visibility: visible;"><defs><clipPath id="__lottie_element_40"><rect width="180" height="96" x="0" y="0"></rect></clipPath><g id="__lottie_element_41"><g style="display: none;"><path fill="url(#__lottie_element_44)"></path></g></g><linearGradient id="__lottie_element_44" spreadMethod="pad" gradientUnits="userSpaceOnUse"><stop></stop><stop></stop></linearGradient><mask id="__lottie_element_41_1" mask-type="alpha"><use xlink:href="#__lottie_element_41"></use></mask><g id="__lottie_element_48"><g style="display: none;"><path fill="url(#__lottie_element_51)"></path></g></g><linearGradient id="__lottie_element_51" spreadMethod="pad" gradientUnits="userSpaceOnUse"><stop></stop><stop></stop></linearGradient><mask id="__lottie_element_48_1" mask-type="alpha"><use xlink:href="#__lottie_element_48"></use></mask></defs><g clip-path="url(#__lottie_element_40)"><g mask="url(#__lottie_element_48_1)" style="display: block;"><g transform="matrix(6.199999809265137,0,0,1.2000000476837158,90,48)" opacity="1"><path fill="rgb(255,39,145)" fill-opacity="1" d=" M50,-75 C50,-75 50,75 50,75 C50,75 -50,75 -50,75 C-50,75 -50,-75 -50,-75 C-50,-75 50,-75 50,-75z"></path></g></g><g mask="url(#__lottie_element_41_1)" style="display: block;"><g transform="matrix(6.199999809265137,0,0,1.2000000476837158,90,48)" opacity="1"><path fill="rgb(255,39,145)" fill-opacity="1" d=" M50,-75 C50,-75 50,75 50,75 C50,75 -50,75 -50,75 C-50,75 -50,-75 -50,-75 C-50,-75 50,-75 50,-75z"></path></g></g></g></svg>