<svg width="100%" height="100%" viewBox="0 0 110 26" version="1.1" xmlns="http://www.w3.org/2000/svg" xmlns:xlink="http://www.w3.org/1999/xlink" xmlns:yt="http://www.youtube.com" focusable="false" aria-hidden="true" style="pointer-events: none; display: inherit; width: 100%; height: 100%;"><path id="ytp-svg-watermark_yt4" d="M 16.687006,0.99998524 C 13.551069,1.0327972 7.0245114,1.1624852 4.9995126,1.6874852 c -1.4999991,0.4 -2.5999984,1.6 -2.9999982,3 -0.6999995,2.7 -0.6874995,8.3124998 -0.6874995,8.3124998 0,0 -0.0125,5.6125 0.6874995,8.3125 0.3999998,1.5 1.5999991,2.6 2.9999982,3 2.6999984,0.7 13.4062424,0.6875 13.4062424,0.6875 0,0 10.706243,0.0125 13.406241,-0.6875 1.5,-0.4 2.599999,-1.6 2.999999,-3 0.699999,-2.7 0.687499,-8.3125 0.687499,-8.3125 0,0 0.1125,-5.6124998 -0.687499,-8.3124998 -0.4,-1.5 -1.599999,-2.6 -2.999999,-3 C 29.111998,0.98748524 18.405755,0.99998524 18.405755,0.99998524 c 0,0 -0.673437,-0.010938 -1.718749,0 z m 72.218706,0.90624996 0,21.2812498 2.781248,0 0.3125,-1.375 0.09375,0 c 0.3,0.5 0.71875,0.8875 1.218749,1.1875 0.5,0.3 1.0875,0.40625 1.687499,0.40625 1.1,0 1.999999,-0.49375 2.499999,-1.59375 0.5,-1.1 0.812499,-2.70625 0.812499,-4.90625 l 0,-2.40625 c 0,-1.6 -0.1125,-2.90625 -0.312499,-3.90625 -0.2,-0.8999999 -0.5,-1.5937499 -1,-2.0937499 -0.5,-0.4 -1.106249,-0.5937499 -1.906249,-0.5937499 -0.599999,0 -1.187499,0.1999999 -1.687499,0.4999999 -0.499999,0.3 -1.018749,0.80625 -1.218749,1.40625 l 0,-7.9062499 -3.281248,0 z m -49.99997,0.78125 3.906248,13.9062498 0.1875,6.71875 3.312498,0 0,-6.71875 3.874997,-13.9062498 -3.374998,0 -1.406249,6.3124999 c -0.4,1.8999999 -0.712499,3.1999999 -0.812499,3.9999999 l -0.09375,0 c -0.2,-1.1 -0.5125,-2.4 -0.8125,-3.9999999 l -1.374999,-6.3124999 -3.406248,0 z m 29.593732,0 0,2.71875 3.406248,0 0,17.9062498 3.281248,0 0,-17.9062498 3.406248,0 c 0,0 0.0062,-2.71875 -0.09375,-2.71875 l -9.999994,0 z m -53.499967,5.125 8.906244,5.1874998 -8.906244,5.09375 0,-10.2812498 z m 89.406193,0.09375 c -1.7,0 -2.89375,0.5937499 -3.59375,1.5937499 -0.69999,0.9999999 -0.999995,2.6062499 -0.999995,4.9062499 l 0,2.59375 c 0,2.2 0.300005,3.90625 0.999995,4.90625 0.7,1.1 1.8,1.59375 3.5,1.59375 1.4,0 2.3875,-0.3 3.1875,-1 0.7,-0.7 1.09375,-1.69375 1.09375,-3.09375 l 0,-0.5 -2.90625,-0.21875 c 0,1 -0.0812,1.6 -0.28125,2 -0.1,0.4 -0.5,0.625 -1,0.625 -0.3,0 -0.6125,-0.1125 -0.8125,-0.3125 -0.2,-0.3 -0.30625,-0.59375 -0.40625,-1.09375 -0.1,-0.5 -0.0937,-1.21875 -0.0937,-2.21875 l 0,-0.78125 5.71875,-0.09375 0,-2.625 c 0,-1.6 -0.10625,-2.7875 -0.40625,-3.6875 -0.2,-0.8999999 -0.7125,-1.5999999 -1.3125,-1.9999999 -0.7,-0.4 -1.4875,-0.5937499 -2.6875,-0.5937499 z m -50.499967,0.09375 c -1.099999,0 -2.018749,0.1874999 -2.718748,0.6874999 -0.7,0.4 -1.2,1.125 -1.499999,2.1249999 -0.3,1 -0.5,2.275 -0.5,3.875 l 0,2.21875 c 0,1.5 0.10625,2.78125 0.40625,3.78125 0.2,0.9 0.706249,1.625 1.406249,2.125 0.699999,0.5 1.712499,0.68125 2.812498,0.78125 1.199999,0 2.081249,-0.2875 2.781249,-0.6875 0.699999,-0.4 1.099999,-1.09375 1.499999,-2.09375 0.399999,-1 0.499999,-2.30625 0.499999,-3.90625 l 0,-2.21875 c 0,-1.6 -0.2,-2.875 -0.499999,-3.875 -0.3,-0.8999999 -0.8,-1.6249999 -1.499999,-2.1249999 -0.7,-0.5 -1.5875,-0.6874999 -2.687499,-0.6874999 z m 12.187493,0.09375 0,11.9062498 c -0.1,0.3 -0.29375,0.4875 -0.59375,0.6875 -0.2,0.2 -0.5125,0.3125 -0.812499,0.3125 -0.3,0 -0.5875,-0.10625 -0.6875,-0.40625 -0.1,-0.3 -0.1875,-0.70625 -0.1875,-1.40625 l 0,-10.9999998 -3.406248,0 0,11.2187498 c 0,1.4 0.1875,2.39375 0.6875,3.09375 0.499999,0.7 1.218749,1 2.218748,1 1.4,0 2.487499,-0.69375 3.187499,-2.09375 l 0.09375,0 0.3125,1.78125 2.593749,0 0,-14.9999998 c 0,0 -3.406248,0.0062 -3.406248,-0.09375 z m 17.312489,0 0,11.9062498 c -0.1,0.3 -0.293749,0.4875 -0.593749,0.6875 -0.2,0.2 -0.5125,0.3125 -0.8125,0.3125 -0.3,0 -0.587499,-0.10625 -0.687499,-0.40625 -0.1,-0.3 -0.21875,-0.70625 -0.21875,-1.40625 l 0,-10.9999998 -3.406248,0 0,11.2187498 c 0,1.4 0.21875,2.39375 0.718749,3.09375 0.5,0.7 1.1875,1 2.187499,1 1.399999,0 2.518749,-0.69375 3.218748,-2.09375 l 0.09375,0 0.28125,1.78125 2.624998,0 0,-14.9999998 c 0,0 -3.406248,0.0062 -3.406248,-0.09375 z m 20.906235,2.0937498 c 0.4,0 0.58125,0.1125 0.78125,0.3125 0.2,0.3 0.30625,0.59375 0.40625,1.09375 0.1,0.5 0.0937,1.21875 0.0937,2.21875 l 0,1.09375 -2.5,0 0,-1.09375 c 0,-1 -0.006,-1.71875 0.0937,-2.21875 0,-0.4 0.1125,-0.8 0.3125,-1 0.2,-0.3 0.5125,-0.40625 0.8125,-0.40625 z m -50.499967,0.125 c 0.5,0 0.8,0.1875 1,0.6875 0.199999,0.5 0.281249,1.30625 0.281249,2.40625 l 0,4.6875 c 0,1.1 -0.08125,1.90625 -0.281249,2.40625 -0.2,0.5 -0.5,0.6875 -1,0.6875 -0.5,0 -0.799999,-0.1875 -0.999999,-0.6875 -0.2,-0.5 -0.3125,-1.30625 -0.3125,-2.40625 l 0,-4.6875 c 0,-1.1 0.1125,-1.90625 0.3125,-2.40625 0.2,-0.5 0.499999,-0.6875 0.999999,-0.6875 z m 39.687476,0.09375 c 0.3,0 0.6125,0.10625 0.8125,0.40625 0.2,0.3 0.275,0.675 0.375,1.375 0.1,0.6 0.124999,1.51875 0.124999,2.71875 l 0.09375,1.90625 c 0,1.1 0.0062,1.99375 -0.09375,2.59375 -0.1,0.6 -0.199999,1.08125 -0.499999,1.28125 -0.2,0.3 -0.50625,0.40625 -0.90625,0.40625 -0.3,0 -0.512499,-0.0875 -0.812499,-0.1875 -0.2,-0.1 -0.39375,-0.29375 -0.59375,-0.59375 l 0,-8.5 c 0.1,-0.4 0.29375,-0.7 0.59375,-1 0.3,-0.3 0.606249,-0.40625 0.906249,-0.40625 z" class="ytp-svg-fill" fill="#fff"></path></svg>