<svg xmlns="http://www.w3.org/2000/svg" height="24" viewBox="0 -960 960 960" width="24" fill="#041E49"><path d="M80-360v-57l340-340q43-43 100.5-63T646-840q71 0 130.5 23T880-750L730-600h-90v78q-39 24-83 37t-91 13q-44 0-88-12.5T296-520L136-360H80Zm386-192q24 0 47.5-4.5T560-570v-110h137l58-58q-23-11-50-16.5t-59-5.5q-51 0-97 17.5T470-692L356-578q24 12 52.5 19t57.5 7Zm14 232v-40q0-17 11.5-28.5T520-400h200q17 0 28.5 11.5T760-360v40H480Zm-40 200q-17 0-28.5-11.5T400-160v-80q0-17 11.5-28.5T440-280h360q17 0 28.5 11.5T840-240v80q0 17-11.5 28.5T800-120H440Zm116-536Z"></path></svg>